<svg xmlns="http://www.w3.org/2000/svg" viewBox="0 0 120 120" role="img" aria-label="Raised garden bed">
  <circle cx="60" cy="60" r="56" fill="#A9C4A4"/>
  <circle cx="60" cy="60" r="52" fill="none" stroke="#2D5B3C" stroke-width="2.5" opacity="0.85"/>
  <g fill="none" stroke="#2D5B3C" stroke-width="4" stroke-linecap="round" stroke-linejoin="round">
    <rect x="26" y="62" width="68" height="22" rx="3"/>
    <path d="M26 73 H 94" stroke-width="2.5"/>
    <path d="M42 62 C 42 54, 42 48, 42 44 M 42 52 C 36 50, 33 45, 33 39 C 39 41, 42 46, 42 50 Z M 42 48 C 48 46, 51 41, 51 35 C 45 37, 42 42, 42 46 Z"/>
    <path d="M62 62 C 62 56, 62 52, 62 48 M 62 56 C 57 54, 55 50, 55 46 C 60 48, 62 51, 62 54 Z"/>
    <path d="M80 62 C 80 52, 80 46, 80 40 M 80 50 C 74 48, 71 43, 71 38 C 77 40, 80 44, 80 48 Z M 80 46 C 86 44, 89 39, 89 33 C 83 35, 80 40, 80 44 Z"/>
  </g>
</svg>
