<svg xmlns="http://www.w3.org/2000/svg" viewBox="0 0 120 120" role="img" aria-label="Pollinator seeds">
  <circle cx="60" cy="60" r="56" fill="#A9C4A4"/>
  <circle cx="60" cy="60" r="52" fill="none" stroke="#2D5B3C" stroke-width="2.5" opacity="0.85"/>
  <g fill="none" stroke="#2D5B3C" stroke-width="4" stroke-linecap="round" stroke-linejoin="round">
    <circle cx="52" cy="60" r="9"/>
    <path d="M52 39 C 58 33, 66 37, 62 45 M 68 52 C 76 50, 80 58, 72 62 M 66 70 C 72 76, 66 84, 58 78 M 40 68 C 32 70, 28 62, 36 58 M 36 50 C 30 44, 38 36, 44 42"/>
    <ellipse cx="84" cy="42" rx="9" ry="6.5" transform="rotate(-20 84 42)"/>
    <path d="M78 40 L 90 44 M 81 37 L 87 47" stroke-width="2.5"/>
    <path d="M88 36 C 92 30, 98 32, 96 38 M 92 48 C 98 50, 98 56, 92 54" stroke-width="3"/>
  </g>
</svg>
