<svg xmlns="http://www.w3.org/2000/svg" viewBox="0 0 120 120" role="img" aria-label="Educational materials">
  <circle cx="60" cy="60" r="56" fill="#A9C4A4"/>
  <circle cx="60" cy="60" r="52" fill="none" stroke="#2D5B3C" stroke-width="2.5" opacity="0.85"/>
  <g fill="none" stroke="#2D5B3C" stroke-width="4" stroke-linecap="round" stroke-linejoin="round">
    <path d="M60 40 C 52 34, 40 33, 30 36 L 30 84 C 40 81, 52 82, 60 88 C 68 82, 80 81, 90 84 L 90 36 C 80 33, 68 34, 60 40 Z"/>
    <path d="M60 40 V 88"/>
    <path d="M38 46 C 44 44, 50 44, 54 46 M 38 56 C 44 54, 50 54, 54 56 M 66 46 C 72 44, 78 44, 82 46" stroke-width="2.5"/>
    <path d="M74 62 C 74 56, 74 52, 74 50 M 74 56 C 70 54, 68 51, 68 48 C 72 49, 74 52, 74 54 Z" stroke-width="3"/>
  </g>
</svg>
